HIERARCHY
ROOT RootJoint
{
    OFFSET   0.000000   0.000000   0.000000
    CHANNELS 6 Xposition Yposition Zposition Xrotation Yrotation Zrotation
    JOINT pelvis_lowerback
    {
        OFFSET   0.000000   0.093605   0.000000
        CHANNELS 3 Xrotation Yrotation Zrotation
        JOINT lowerback_torso
        {
            OFFSET   0.000000   0.100000   0.000000
            CHANNELS 3 Xrotation Yrotation Zrotation
            JOINT torso_head
            {
                OFFSET   0.000000   0.282350   0.000000
                CHANNELS 3 Xrotation Yrotation Zrotation
                End Site
                {
                    OFFSET   0.000000   0.192650   0.000000
                }
            }
            JOINT rTorso_Clavicle
            {
                OFFSET  -0.001000   0.157500   0.000000
                CHANNELS 3 Xrotation Yrotation Zrotation
                JOINT rShoulder
                {
                    OFFSET  -0.117647   0.000000   0.000000
                    CHANNELS 3 Xrotation Yrotation Zrotation
                    JOINT rElbow
                    {
                        OFFSET  -0.245000   0.000000   0.000000
                        CHANNELS 3 Xrotation Yrotation Zrotation
                        JOINT rWrist
                        {
                            OFFSET  -0.240000   0.000000   0.000000
                            CHANNELS 3 Xrotation Yrotation Zrotation
                            End Site
                            {
                                OFFSET  -0.116353  -0.002500   0.000000
                            }
                        }
                    }
                }
            }
            JOINT lTorso_Clavicle
            {
                OFFSET   0.001000   0.157500   0.000000
                CHANNELS 3 Xrotation Yrotation Zrotation
                JOINT lShoulder
                {
                    OFFSET   0.117647   0.000000   0.000000
                    CHANNELS 3 Xrotation Yrotation Zrotation
                    JOINT lElbow
                    {
                        OFFSET   0.245000   0.000000   0.000000
                        CHANNELS 3 Xrotation Yrotation Zrotation
                        JOINT lWrist
                        {
                            OFFSET   0.240000   0.000000   0.000000
                            CHANNELS 3 Xrotation Yrotation Zrotation
                            End Site
                            {
                                OFFSET   0.116353  -0.002500   0.000000
                            }
                        }
                    }
                }
            }
        }
    }
    JOINT rHip
    {
        OFFSET  -0.100000  -0.051395   0.000000
        CHANNELS 3 Xrotation Yrotation Zrotation
        JOINT rKnee
        {
            OFFSET   0.000000  -0.410000   0.000000
            CHANNELS 3 Xrotation Yrotation Zrotation
            JOINT rAnkle
            {
                OFFSET   0.000000  -0.390000   0.000000
                CHANNELS 3 Xrotation Yrotation Zrotation
                JOINT rToeJoint
                {
                    OFFSET   0.000000  -0.050000   0.130000
                    CHANNELS 3 Xrotation Yrotation Zrotation
                    End Site
                    {
                        OFFSET  -0.010000   0.002000   0.060000
                    }
                }
            }
        }
    }
    JOINT lHip
    {
        OFFSET   0.100000  -0.051395   0.000000
        CHANNELS 3 Xrotation Yrotation Zrotation
        JOINT lKnee
        {
            OFFSET   0.000000  -0.410000   0.000000
            CHANNELS 3 Xrotation Yrotation Zrotation
            JOINT lAnkle
            {
                OFFSET   0.000000  -0.390000   0.000000
                CHANNELS 3 Xrotation Yrotation Zrotation
                JOINT lToeJoint
                {
                    OFFSET   0.000000  -0.050000   0.130000
                    CHANNELS 3 Xrotation Yrotation Zrotation
                    End Site
                    {
                        OFFSET   0.010000   0.002000   0.060000
                    }
                }
            }
        }
    }
}
MOTION
Frames: 15
Frame Time:   0.008333
 -2.376719   0.925631   3.975860   0.000000   0.000000   0.000000   0.000000   0.000000   0.000000   0.000000   0.000000   0.000000   0.000000   0.000000   0.000000   0.000000   0.000000   0.000000   0.000000   0.000000   0.000000   0.000000   0.000000   0.000000   0.000000   0.000000   0.000000   0.000000   0.000000   0.000000   0.000000   0.000000   0.000000   0.000000   0.000000   0.000000   0.000000   0.000000   0.000000   0.000000   0.000000   0.000000   0.000000   0.000000   0.000000   0.000000   0.000000   0.000000   0.000000   0.000000   0.000000   0.000000   0.000000   0.000000   0.000000   0.000000   0.000000   0.000000   0.000000   0.000000   0.000000   0.000000   0.000000
 -2.376633   0.926162   3.975292  -1.064382   0.103535  -0.153280   1.553796   0.010791   0.193779   0.050494  -0.079987   0.043131  -0.287772   0.057630   0.080272  -0.250684  -0.438477   0.193819  -0.955534  -0.611915   2.096528   0.075213   3.664393   0.019472   0.005907  -1.165587  -3.382705  -0.231030   0.403714  -0.436290  -0.917732   0.458999  -2.076874   0.076567  -3.634899  -0.017421  -0.063266   1.178464   3.614110   0.563449  -0.006916   0.030228   1.646440   0.001808   0.001333  -1.342592  -0.230069   0.014511  -0.215482  -0.000204   0.000252   0.514027  -0.181677   0.306604   1.985843  -0.002671  -0.001319  -1.448528  -0.095944  -0.001582   0.199877  -0.000263  -0.000308
 -2.376518   0.927051   3.974635  -2.230396   0.220524  -0.320742   3.095715   0.023126   0.407641   0.271536  -0.169461   0.106640  -0.484768   0.114582   0.177875  -0.486727  -0.849485   1.081088  -1.888834  -1.172583   4.746192   0.174812   7.365372   0.032590   0.007717  -1.385119  -6.102139  -0.447011   0.761839  -1.609671  -1.808727   0.844739  -4.715514   0.180029  -7.383106  -0.028863  -0.129597   1.405450   6.530856   1.145614  -0.018880  -0.039591   3.421218   0.005297   0.002358  -2.590878  -0.448330   0.022315  -0.456702  -0.000658   0.000450   1.118136  -0.346224   0.740828   4.133168  -0.007180  -0.001627  -2.790391  -0.185022  -0.004812   0.368013  -0.000594  -0.000447
 -2.376416   0.927871   3.973914  -3.358155   0.356052  -0.477314   4.552636   0.032071   0.610370   0.520693  -0.260730   0.160499  -0.652242   0.167187   0.280133  -0.698979  -1.190983   2.410152  -2.785108  -1.721159   7.766216   0.270089  10.846374   0.042154   0.026949  -1.280307  -7.962033  -0.637402   1.048359  -3.259888  -2.626932   1.200280  -7.588878   0.285962 -11.152584  -0.036524  -0.186396   1.354780   8.493291   1.671314  -0.038283  -0.210895   5.107038   0.009348   0.002882  -3.753962  -0.654050   0.024081  -0.678274  -0.001177   0.000554   1.731583  -0.488137   1.259571   6.193132  -0.012203  -0.000651  -4.039344  -0.266411  -0.009453   0.528349  -0.000970  -0.000471
 -2.376355   0.928319   3.973148  -4.422468   0.512941  -0.619368   5.924055   0.035966   0.793138   0.766034  -0.354928   0.198472  -0.808778   0.215837   0.379768  -0.886856  -1.479290   3.998324  -3.636922  -2.288743  11.039797   0.350081  14.101121   0.049399   0.044837  -1.102928  -9.154990  -0.800962   1.277125  -5.181487  -3.367596   1.544556 -10.549316   0.382552 -14.928133  -0.041637  -0.246924   1.232367   9.725677   2.131540  -0.062958  -0.465857   6.674956   0.013280   0.003033  -4.840391  -0.847566   0.020786  -0.888620  -0.001704   0.000591   2.333178  -0.610169   1.844584   8.130471  -0.016995   0.001310  -5.205218  -0.340839  -0.015192   0.669930  -0.001303  -0.000405
 -2.376311   0.928157   3.972353  -5.422030   0.688160  -0.749807   7.216739   0.034377   0.961037   1.004567  -0.452712   0.234617  -0.957885   0.261014   0.469503  -1.048319  -1.731345   5.768453  -4.395372  -2.862848  14.334615   0.408999  17.136044   0.053499   0.046367  -0.945465  -9.809687  -0.937781   1.463052  -7.244976  -4.029912   1.887616 -13.507492   0.463894 -18.702784  -0.044870  -0.319024   1.112501  10.440372   2.530967  -0.090487  -0.787867   8.128795   0.016792   0.002893  -5.855599  -1.029152   0.013479  -1.088510  -0.002199   0.000578   2.917757  -0.715181   2.480824   9.946345  -0.021096   0.003826  -6.294083  -0.408960  -0.021618   0.793107  -0.001560  -0.000291
 -2.376264   0.927214   3.971544  -6.359302   0.873325  -0.869525   8.436774   0.026536   1.119175   1.236846  -0.555225   0.272736  -1.099514   0.303244   0.550630  -1.185433  -1.952190   7.622774  -5.057732  -3.435619  17.553418   0.446675  19.964754   0.055215   0.031827  -0.828654 -10.101008  -1.052325   1.608806  -9.357499  -4.618585   2.224198 -16.402878   0.523194 -22.364036  -0.046538  -0.395153   0.978139  10.803805   2.875235  -0.118738  -1.164131   9.476841   0.019718   0.002490  -6.804186  -1.199263   0.003012  -1.277211  -0.002630   0.000542   3.484051  -0.805413   3.153170  11.647408  -0.024316   0.006472  -7.310957  -0.471463  -0.028442   0.900848  -0.001737  -0.000164
 -2.375963   0.924939   3.970053  -6.681753   1.002666  -0.913582   9.231849  -0.037256   1.276536   1.240435  -0.534072   0.247547  -1.371376   0.153440   0.532654  -1.108690  -2.157325   8.993478  -5.381990  -4.126531  20.549346   0.471766  23.058587   0.047150  -0.119308  -0.892951  -9.746844  -0.936202   1.857186 -10.783579  -5.442450   2.652772 -19.591714   0.556945 -26.145531  -0.056957  -0.486184   0.876478  10.661157   2.447462  -0.431903  -1.650743  10.842594   0.021700  -0.002048  -7.186395  -1.399254   0.116068  -1.136480  -0.001574  -0.000087   3.456105  -0.927020   3.663655  12.712224  -0.023467   0.006685  -8.311874  -0.392789  -0.118078   1.070326  -0.001932   0.000083
 -2.375603   0.921515   3.968328  -6.926413   1.146691  -0.937257  10.024292  -0.098625   1.433270   1.230693  -0.504546   0.206932  -1.646519   0.006014   0.513224  -1.034443  -2.342624  10.117401  -5.656361  -4.775891  23.242145   0.471303  25.962276   0.039182  -0.240818  -0.869345  -9.459951  -0.815242   2.099831 -12.006932  -6.181771   3.103773 -22.504577   0.565892 -29.928833  -0.065313  -0.584997   0.787184  10.527683   1.966414  -0.735998  -2.136757  12.078189   0.022323  -0.005184  -7.536149  -1.590839   0.219112  -0.955230  -0.000613  -0.000712   3.334505  -1.047664   4.112184  13.573580  -0.021668   0.006706  -9.255214  -0.318459  -0.201104   1.200107  -0.001920   0.000248
 -2.375248   0.917033   3.966506  -7.144904   1.309889  -0.953149  10.809762  -0.149275   1.582104   1.248527  -0.472148   0.160809  -1.899036  -0.131986   0.497596  -0.970380  -2.508422  11.058505  -5.895098  -5.384039  25.678499   0.454743  28.680537   0.031629  -0.346358  -0.802948  -9.338549  -0.699267   2.324564 -13.071191  -6.850704   3.558171 -25.164022   0.557397 -33.714583  -0.072797  -0.677112   0.696959  10.508547   1.498736  -1.015373  -2.597404  13.213391   0.022032  -0.007041  -7.863034  -1.770508   0.313764  -0.787817   0.000059  -0.001100   3.166207  -1.164286   4.521921  14.335435  -0.019636   0.006716 -10.137876  -0.248456  -0.277779   1.313785  -0.001836   0.000378
 -2.374779   0.911952   3.964594  -7.325369   1.296075  -0.963287  11.571043  -0.125158   1.714986   1.281435  -0.390166   0.096692  -2.128650  -0.257613   0.480713  -0.929561  -2.631463  11.870774  -6.111568  -5.936195  27.899633   0.429071  31.228102   0.025701  -0.434731  -0.686997  -9.353413  -0.589321   2.538203 -14.030159  -7.458229   4.008296 -27.609393   0.532428 -37.260172  -0.077279  -0.746748   0.521267  10.597421   0.996975  -1.257103  -3.051610  14.256045   0.020887  -0.009584  -8.166528  -1.936996   0.401593  -0.622927   0.000542  -0.001599   3.052489  -1.414639   4.652503  15.025963  -0.016726   0.004366 -11.316242  -0.406656  -0.509545  -2.103222  -0.004210   0.011959
 -2.374647   0.911053   3.962901  -7.759364   1.349638  -0.805460  12.552328  -0.145418   1.676386   1.441702  -0.345680  -0.009226  -2.340309  -0.377266   0.465229  -0.906383  -2.708974  12.891626  -6.290858  -6.453586  30.058385   0.406445  33.582130   0.018115  -0.524628  -0.617990  -9.456987  -0.509516   2.677609 -15.120680  -8.013979   4.436688 -29.923618   0.507762 -40.536333  -0.077280  -0.820250   0.411136  10.783202   0.707133  -1.338873  -3.273518  15.535097   0.016926  -0.009061  -8.620976  -1.848719   0.718251  -0.355787  -0.000187  -0.001275   2.716290  -1.535520   4.488979  16.379108  -0.013315   0.003815 -11.757695  -0.412237  -0.703085  -1.750200  -0.002711   0.009592
 -2.374649   0.910339   3.961656  -8.074338   1.425953  -0.666316  13.322076  -0.171318   1.679106   1.585837  -0.312709  -0.123128  -2.514101  -0.488569   0.439941  -0.851836  -2.814529  13.716308  -6.414323  -6.958896  32.065119   0.377473  35.788963   0.013503  -0.615471  -0.560650  -9.428742  -0.399093   2.832100 -16.040269  -8.486420   4.867634 -32.092539   0.471479 -43.611932  -0.079529  -0.894978   0.298810  10.840007   0.471962  -1.493640  -3.460322  16.514753   0.013473  -0.008555  -8.978694  -1.919364   0.805319  -0.210978  -0.000223  -0.001264   2.444045  -1.568638   4.366795  17.420570  -0.010537   0.004123 -12.279141  -0.326836  -0.786617  -1.352659  -0.001888   0.008317
 -2.374965   0.909775   3.960545  -8.086795   1.521869  -0.641927  13.792051  -0.187334   1.653292   1.631220  -0.258072  -0.120726  -2.664519  -0.532420   0.480880  -0.710233  -2.955939  14.211801  -6.272055  -7.356137  33.779111   0.339278  37.726872   0.005455  -0.728293  -0.403599  -9.046836  -0.167918   2.957628 -16.596886  -8.870791   5.323793 -33.946833   0.424089 -46.711547  -0.081608  -1.033895   0.278861  10.542871   0.106759  -1.717618  -3.506678  17.127791   0.010519  -0.007773  -9.173137  -1.883006   0.838145  -0.092933  -0.000221  -0.001133   1.924557  -1.593280   4.377400  18.306881  -0.008438   0.004390 -12.578296  -0.186663  -0.732314  -1.130728  -0.001666   0.007158
 -2.375409   0.909311   3.959539  -8.021849   1.578009  -0.657443  14.209419  -0.186468   1.614564   1.638789  -0.194610  -0.101938  -2.814998  -0.569218   0.522368  -0.567771  -3.121088  14.502250  -6.138038  -7.741035  35.261400   0.298336  39.533551   0.000759  -0.830707  -0.273749  -8.782915   0.037374   3.108986 -16.908326  -9.246992   5.765139 -35.531536   0.368023 -49.622230  -0.085266  -1.145733   0.173429  10.420838  -0.267896  -1.933594  -3.508111  17.601471   0.008155  -0.007010  -9.339705  -1.847686   0.864500   0.017157  -0.000223  -0.001044   1.411044  -1.626647   4.425930  19.056908  -0.006858   0.004070 -12.877602  -0.057723  -0.671721  -0.913527  -0.001505   0.006093
